<svg width="20" height="20" viewBox="0 0 20 20" fill="none" xmlns="http://www.w3.org/2000/svg">
<path fill-rule="evenodd" clip-rule="evenodd" d="M11.9571 0.899175C10.9705 -0.299726 9.13478 -0.299724 8.14813 0.899176L7.82945 1.28642C7.3075 1.92065 6.50408 2.25344 5.68653 2.17405L5.18736 2.12557C3.64194 1.97548 2.3439 3.27352 2.49399 4.81893L2.54247 5.31811C2.62187 6.13565 2.28908 6.93908 1.65484 7.46102L1.2676 7.77971C0.0686976 8.76636 0.068699 10.6021 1.2676 11.5887L1.65484 11.9074C2.28908 12.4293 2.62187 13.2328 2.54247 14.0503L2.49399 14.5495C2.3439 16.0949 3.64194 17.3929 5.18736 17.2429L5.68653 17.1944C6.50407 17.115 7.3075 17.4478 7.82945 18.082L8.14814 18.4692C9.13478 19.6681 10.9705 19.6681 11.9571 18.4692L12.2758 18.082C12.7978 17.4478 13.6012 17.115 14.4187 17.1944L14.9179 17.2429C16.4633 17.3929 17.7614 16.0949 17.6113 14.5495L17.5628 14.0503C17.4834 13.2328 17.8162 12.4293 18.4504 11.9074L18.8377 11.5887C20.0366 10.6021 20.0366 8.76636 18.8377 7.77971L18.4504 7.46102C17.8162 6.93908 17.4834 6.13565 17.5628 5.31811L17.6113 4.81893C17.7614 3.27352 16.4633 1.97548 14.9179 2.12557L14.4187 2.17405C13.6012 2.25344 12.7978 1.92065 12.2758 1.28642L11.9571 0.899175ZM10.6162 2.93728C10.3993 2.44877 9.70598 2.44877 9.48907 2.93728L8.5727 5.00102C8.43939 5.30124 8.09414 5.44425 7.78758 5.32622L5.68034 4.51491C5.18152 4.32286 4.69129 4.8131 4.88334 5.31191L5.69465 7.41916C5.81267 7.72571 5.66966 8.07097 5.36944 8.20428L3.30571 9.12065C2.8172 9.33756 2.8172 10.0309 3.30571 10.2478L5.36944 11.1641C5.66966 11.2974 5.81267 11.6427 5.69465 11.9493L4.88334 14.0565C4.69129 14.5553 5.18153 15.0456 5.68034 14.8535L7.78759 14.0422C8.09414 13.9242 8.43939 14.0672 8.5727 14.3674L9.48907 16.4311C9.70598 16.9196 10.3993 16.9196 10.6162 16.4311L11.5326 14.3674C11.6659 14.0672 12.0111 13.9242 12.3177 14.0422L14.4249 14.8535C14.9237 15.0456 15.414 14.5553 15.2219 14.0565L14.4106 11.9493C14.2926 11.6427 14.4356 11.2974 14.7358 11.1641L16.7996 10.2478C17.2881 10.0309 17.2881 9.33756 16.7996 9.12065L14.7358 8.20428C14.4356 8.07097 14.2926 7.72571 14.4106 7.41916L15.2219 5.31191C15.414 4.8131 14.9237 4.32287 14.4249 4.51491L12.3177 5.32622C12.0111 5.44425 11.6659 5.30124 11.5326 5.00102L10.6162 2.93728Z" fill="#3D4048"/>
</svg>
