<svg width="20" height="20" viewBox="0 0 20 20" fill="none" xmlns="http://www.w3.org/2000/svg">
<path d="M3.96977 17.0675C3.56521 17.0675 3.18593 16.8905 2.83194 16.5365C2.47794 16.1825 2.30095 15.8032 2.30095 15.3987C2.30095 14.9688 2.50323 14.539 2.88251 14.1597C3.43878 13.6034 4.17205 13.1988 5.05703 12.7437C5.84087 12.3392 6.67528 11.8587 7.63611 11.1255C7.43383 10.8473 7.28212 10.4933 7.20627 10.1141C6.01786 10.2911 5.1076 10.5186 4.24791 10.7968C3.28707 11.1002 2.50323 11.3277 1.71939 11.3277C0.632129 11.3277 0 10.6956 0 9.68421C0 8.6728 0.632129 8.04068 1.71939 8.04068C2.50323 8.04068 3.28707 8.26824 4.24791 8.57166C5.1076 8.8498 6.01786 9.10265 7.23155 9.27965C7.28212 8.90037 7.43383 8.54638 7.6614 8.24296C6.67528 7.50969 5.84087 7.02927 5.05703 6.62471C4.17205 6.16958 3.43878 5.76501 2.88251 5.20874C2.50323 4.82946 2.30095 4.39961 2.30095 3.96977C2.30095 3.5652 2.47794 3.18593 2.83194 2.83194C3.18593 2.47794 3.56521 2.30095 3.96977 2.30095C4.39962 2.30095 4.82946 2.50323 5.20874 2.88251C5.76501 3.43878 6.16958 4.17205 6.62471 5.05703C7.02927 5.84087 7.50969 6.67528 8.24296 7.6614C8.54638 7.43383 8.90037 7.28212 9.27965 7.23155C9.10265 6.01787 8.8498 5.1076 8.57167 4.2479C8.26824 3.28707 8.04068 2.50323 8.04068 1.71939C8.04068 0.632129 8.67281 0 9.68421 0C10.6956 0 11.3277 0.632129 11.3277 1.71939C11.3277 2.50323 11.1002 3.28707 10.7968 4.2479C10.5186 5.1076 10.2911 6.01786 10.1141 7.20627C10.4933 7.28212 10.8473 7.43383 11.1255 7.63611C11.8587 6.67528 12.3392 5.84087 12.7437 5.05703C13.1988 4.17205 13.6034 3.43878 14.1597 2.88251C14.539 2.50323 14.9688 2.30095 15.3987 2.30095C15.8032 2.30095 16.1825 2.47794 16.5365 2.83194C16.8905 3.18593 17.0675 3.5652 17.0675 3.96977C17.0675 4.39961 16.8652 4.82946 16.4859 5.20874C15.9296 5.76501 15.1964 6.16958 14.3114 6.62471C13.5276 7.02927 12.6931 7.50969 11.7323 8.24296C11.9346 8.54638 12.0863 8.87509 12.1622 9.27965C13.3506 9.10265 14.2608 8.8498 15.1205 8.57166C16.0814 8.26824 16.8652 8.04068 17.649 8.04068C18.7363 8.04068 19.3684 8.6728 19.3684 9.68421C19.3684 10.6956 18.7363 11.3277 17.649 11.3277C16.8652 11.3277 16.0814 11.1002 15.1205 10.7968C14.2608 10.5186 13.3506 10.2911 12.1622 10.1141C12.0863 10.4933 11.9599 10.8473 11.7323 11.1508C12.7184 11.8587 13.5276 12.3392 14.3114 12.7437C15.1964 13.1988 15.9296 13.6034 16.4859 14.1597C16.8652 14.539 17.0675 14.9688 17.0675 15.3987C17.0675 15.8032 16.8905 16.1825 16.5365 16.5365C16.1825 16.8905 15.8032 17.0675 15.3987 17.0675C14.9688 17.0675 14.539 16.8652 14.1597 16.4859C13.6034 15.9296 13.1988 15.1964 12.7437 14.3114C12.3392 13.5276 11.8587 12.7184 11.1507 11.7323C10.8473 11.9599 10.4933 12.1116 10.1141 12.1622C10.2911 13.3506 10.5186 14.2608 10.7968 15.1205C11.1002 16.0814 11.3277 16.8652 11.3277 17.649C11.3277 18.7363 10.6956 19.3684 9.68421 19.3684C8.67281 19.3684 8.04068 18.7363 8.04068 17.649C8.04068 16.8652 8.26824 16.0814 8.57167 15.1205C8.8498 14.2608 9.10265 13.3506 9.27965 12.1622C8.90037 12.0863 8.54638 11.9346 8.24296 11.7323C7.50969 12.6931 7.02927 13.5276 6.62471 14.3114C6.16958 15.1964 5.76501 15.9296 5.20874 16.4859C4.82946 16.8652 4.39962 17.0675 3.96977 17.0675Z" fill="#3D4048"/>
</svg>
