<svg width="20" height="21" viewBox="0 0 20 21" fill="none" xmlns="http://www.w3.org/2000/svg">
<path d="M9.34639 1.23561C9.3891 0.900782 9.87405 0.900783 9.91677 1.23561L10.9045 8.97833C10.9211 9.10826 11.0234 9.21056 11.1533 9.22713L18.896 10.2149C19.2309 10.2576 19.2309 10.7425 18.896 10.7852L11.1533 11.773C11.0234 11.7896 10.9211 11.8919 10.9045 12.0218L9.91677 19.7645C9.87405 20.0993 9.3891 20.0993 9.34639 19.7645L8.35865 12.0218C8.34207 11.8919 8.23977 11.7896 8.10984 11.773L0.367122 10.7852C0.032297 10.7425 0.0322987 10.2576 0.367123 10.2149L8.10984 9.22713C8.23977 9.21056 8.34207 9.10826 8.35865 8.97833L9.34639 1.23561Z" fill="#3D4048"/>
</svg>
