<svg width="135" height="45" viewBox="0 0 135 45" fill="none" xmlns="http://www.w3.org/2000/svg">
<path d="M0 22.1121C0 9.89991 9.89991 0 22.1121 0H112.888C125.1 0 135 9.89991 135 22.1121C135 34.3242 125.1 44.2241 112.888 44.2241H22.1121C9.89991 44.2241 0 34.3242 0 22.1121Z" fill="url(#paint0_linear_14_160)"/>
<path fill-rule="evenodd" clip-rule="evenodd" d="M112.888 1.16379H22.1121C10.5427 1.16379 1.16379 10.5427 1.16379 22.1121C1.16379 33.6815 10.5427 43.0603 22.1121 43.0603H112.888C124.457 43.0603 133.836 33.6815 133.836 22.1121C133.836 10.5427 124.457 1.16379 112.888 1.16379ZM22.1121 0C9.89991 0 0 9.89991 0 22.1121C0 34.3242 9.89991 44.2241 22.1121 44.2241H112.888C125.1 44.2241 135 34.3242 135 22.1121C135 9.89991 125.1 0 112.888 0H22.1121Z" fill="#3D4048" fill-opacity="0.7"/>
<path d="M12.1221 15.1572V10.2414H30.3703V15.1572H23.9276V32.5862H18.5648V15.1572H12.1221Z" fill="#EAEAF3"/>
<path d="M37.1474 32.5862H32.0826V14.9338H36.8867V20.6689H37.2964C38.4136 15.7531 39.9033 14.7476 42.2122 14.7476H42.7336V20.5572H41.6909C38.1529 20.5572 37.1474 21.6 37.1474 24.7283V32.5862Z" fill="#EAEAF3"/>
<path d="M51.5444 29.0855C53.8534 29.0855 55.3058 27.7076 55.3058 25.8083V25.1007H51.6561C50.0175 25.1007 48.9747 25.8455 48.9747 27.0745C48.9747 28.1917 49.6078 29.0855 51.5444 29.0855ZM55.5665 32.5862V28.3779H55.1196C54.2258 31.171 52.3637 32.9586 49.3472 32.9586C46.3678 32.9586 44.1706 31.4317 44.1706 27.9683C44.1706 24.8027 46.0327 22.6055 50.6878 22.6055H55.3058V21.3765C55.3058 19.5517 54.5237 18.5089 52.5872 18.5089C50.9113 18.5089 49.943 19.3283 49.6078 21.0414L44.841 19.9614C45.4368 16.7586 47.8947 14.4869 52.7734 14.4869C58.1361 14.4869 60.3334 16.9448 60.3334 21.3765V32.5862H55.5665Z" fill="#EAEAF3"/>
<path d="M75.488 22.1214C75.0411 20.2221 74.2218 18.8814 71.9873 18.8814C69.6411 18.8814 68.1887 20.371 68.1887 23.7227C68.1887 26.851 69.4549 28.6758 72.0618 28.6758C74.3335 28.6758 75.1901 27.149 75.5625 25.3241L80.2176 26.4414C79.6218 30.5379 77.1266 33.1076 72.099 33.1076C66.5128 33.1076 63.0121 30.0165 63.0121 23.9834C63.0121 17.9876 66.4383 14.4496 72.0618 14.4496C77.3128 14.4496 79.5473 16.9448 80.1804 21.2276L75.488 22.1214Z" fill="#EAEAF3"/>
<path d="M91.079 18.2483C88.7701 18.2483 87.4666 19.44 87.2059 22.3448H94.5797C94.5052 19.589 93.3508 18.2483 91.079 18.2483ZM91.1535 33.0703C85.828 33.0703 82.1783 30.1283 82.1783 24.1324C82.1783 18.0248 85.4928 14.4496 91.228 14.4496C96.6652 14.4496 99.2349 17.6524 99.2349 22.531C99.2349 23.2758 99.1977 23.9834 99.1232 24.9145H87.1687C87.4666 27.7448 88.7701 29.011 91.1908 29.011C93.5742 29.011 94.319 27.8938 94.7659 26.5531L99.0114 27.7076C98.2294 30.7614 96.1811 33.0703 91.1535 33.0703Z" fill="#EAEAF3"/>
<path d="M115.277 32.5862L110.883 23.8345H110.287L105.967 32.5862H100.343V32.1765L107.01 21.0786L100.455 10.651V10.2414H106.377L110.808 18.7324H111.404L115.463 10.2414H121.087V10.651L114.532 21.7117L121.236 32.1765V32.5862H115.277Z" fill="#EAEAF3"/>
<defs>
<linearGradient id="paint0_linear_14_160" x1="0" y1="22.1121" x2="135" y2="22.1121" gradientUnits="userSpaceOnUse">
<stop stop-color="#F969FD"/>
<stop offset="1" stop-color="#FFB973"/>
</linearGradient>
</defs>
</svg>
